<svg width="1301" height="850" viewBox="0 0 1301 850" fill="none" xmlns="http://www.w3.org/2000/svg">
<path d="M902.966 793.634C824.916 766.638 871.421 545.262 907.586 465.118C962.086 516.118 1059.59 494.118 1067.09 473.618C1069.34 485.71 1076.56 539.873 1108.18 587.79C1139.81 635.708 1180.83 660.628 1188.08 681.432C1205.75 732.049 1167.06 758.202 1147.71 764.107C1079.76 779.629 1022.4 703.086 1002.21 662.872C973.278 781.654 923.992 799.539 902.966 793.634Z" fill="black"/>
<path d="M888.311 781.618C888.889 790.381 884.915 819.777 861.991 803.665C856.337 798.012 842.973 788.741 834.822 796.881C826.671 805.022 842.752 820.06 851.803 826.561C861.142 833.911 884.066 846.403 901.047 837.584C918.027 828.765 917.756 805.644 915.48 795.185" stroke="black" stroke-width="5" stroke-linecap="round"/>
<path d="M1166.59 750.9C1172.51 753.727 1184.36 761.583 1184.36 770.4C1177.59 780.009 1166.76 803.635 1177.59 821.269C1188.43 838.904 1208.07 798.661 1216.53 776.335C1220.77 763.617 1221.27 735.47 1189.44 724.618" stroke="black" stroke-width="5" stroke-linecap="round"/>
<path d="M913.586 831.618C917.216 838.573 931.484 848.809 959.586 834.121" stroke="black" stroke-width="5" stroke-linecap="round"/>
<path d="M932.586 819.618C940.655 826.907 962.245 838.898 989.586 828.645" stroke="black" stroke-width="5" stroke-linecap="round"/>
<path d="M971.586 814.618C981.706 826.317 1009.88 845.204 1041.59 827.153" stroke="black" stroke-width="5" stroke-linecap="round"/>
<path d="M1015.59 808.618C1018.11 818.981 1052.24 841.09 1168.59 846.618" stroke="black" stroke-width="5" stroke-linecap="round"/>
<path d="M1007.29 384.618C1053.59 371.315 1090.02 329.317 1102.45 309.981C1116.33 289.193 1105.19 242.718 949.587 223.118" stroke="black" stroke-width="5" stroke-linecap="round"/>
<path d="M1007.59 384.618C1004.76 380.816 997.318 373.944 988.586 373.618" stroke="black" stroke-width="5" stroke-linecap="round"/>
<path d="M988.586 373.618C988.844 362.76 998.004 334.758 1032.59 309.618" stroke="black" stroke-width="5" stroke-linecap="round"/>
<path d="M990.586 303.974C986.997 298.163 975.971 285.827 960.586 282.974" stroke="black" stroke-width="5" stroke-linecap="round"/>
<path d="M956.979 390.629C949.098 390.244 932.64 389.088 929.849 387.546C926.361 385.62 925.586 385.62 925.586 381.766C925.586 377.913 956.979 384.464 956.979 372.133C954.136 369.307 949.537 362.962 953.878 360.187C958.219 357.413 967.314 365.454 971.318 369.821C975.452 374.188 984.728 381.073 988.759 373.674" stroke="black" stroke-width="5" stroke-linecap="round"/>
<path d="M1006.59 384.464C1003.1 394.611 990.541 412.824 968.218 404.501C945.894 396.178 944.964 391.785 947.29 390.629" stroke="black" stroke-width="5" stroke-linecap="round"/>
<path d="M851.326 374.781C845.901 373.298 834.044 366.401 830.014 350.671C825.984 334.942 831.435 334.865 834.664 336.792" stroke="black" stroke-width="5" stroke-linecap="round"/>
<path d="M871.477 363.394C869.798 354.655 863.882 337.795 853.652 340.262" stroke="black" stroke-width="5" stroke-linecap="round"/>
<path d="M867.213 349.129C874.343 343.269 878.709 356.711 880.001 364.165C888.06 366.632 891.109 378.301 891.625 383.827C872.974 385.74 859.72 380.731 851.326 374.781C846.187 371.138 842.87 367.142 841.251 364.165C837.247 353.499 831.409 331.241 840.089 327.54C848.769 323.839 851.197 332.166 851.326 336.792C850.396 347.279 855.847 358.896 858.688 363.394" stroke="black" stroke-width="5" stroke-linecap="round"/>
<path d="M1050.59 394.974C1066.43 416.364 1087.09 474.618 1050.59 486.974C998.753 502.259 891.587 505.258 877.587 394.974" stroke="black" stroke-width="5" stroke-linecap="round"/>
<path d="M827.086 359.118L704.77 351.733C699.179 351.395 694.401 355.715 694.175 361.312L692.221 409.849C691.994 415.474 687.171 419.804 681.554 419.424L649.804 417.275C644.396 416.909 640.264 412.302 640.487 406.886L641.678 378.005C641.904 372.528 637.678 367.89 632.203 367.607L623.019 367.131C617.524 366.847 612.832 371.055 612.519 376.548L611.641 391.898C611.332 397.308 606.771 401.487 601.355 401.323L588.414 400.931C582.765 400.759 578.381 395.946 578.736 390.306L580.949 355.216C581.3 349.658 577.043 344.885 571.481 344.599L552.62 343.632C547.086 343.348 542.838 338.619 543.148 333.086L545.524 290.66C545.834 285.123 550.59 280.896 556.124 281.238L691.807 289.618L1025.59 312.118" stroke="black" stroke-width="10" stroke-linecap="round"/>
<path d="M883.771 233.188C877.157 229.117 827.398 233.041 817.724 170.45C801.162 170.644 792.156 157.077 804.793 151.271C818.265 144.324 817.254 131.57 814.813 124.055C810.933 114.2 810.698 103.853 811.535 101.688" stroke="black" stroke-width="5" stroke-linecap="round"/>
<path d="M832.324 147.848C830.445 147.87 828.894 145.603 828.861 142.784C828.828 139.965 830.325 137.661 832.205 137.639C834.084 137.617 835.634 139.885 835.667 142.704C835.7 145.523 834.203 147.826 832.324 147.848Z" fill="black"/>
<path d="M841.562 127.189C838.799 124.235 831.654 119.914 825.18 126.261" stroke="black" stroke-width="5" stroke-linecap="round"/>
<path d="M860.333 184.705C855.254 192.52 849.679 194.739 838.848 189.696" stroke="black" stroke-width="5" stroke-linecap="round"/>
<path d="M901.909 129.928C903.086 132.512 904.071 138.378 898.602 141.17" stroke="black" stroke-width="5" stroke-linecap="round"/>
<path d="M960.202 103.393C966.646 138.649 946.485 165.188 931.868 185.59C916.257 177.156 890.67 157.1 900.483 154.935C910.797 152.66 921.675 124.526 911.659 115.92C899.908 105.823 889.315 121.1 887.296 132.685L877.831 116.316C880.508 104.868 881.557 84.7855 864.344 96.0438C847.131 107.302 821.883 104.353 811.41 101.471C790.76 86.6905 758.677 52.214 795.545 32.5531C826.21 16.2007 866.114 36.8746 890.472 55.4512C906.964 51.0973 951.416 55.324 960.202 103.393Z" fill="black"/>
<path d="M930.72 183.228C923.266 192.202 919.563 199.654 920.024 215.091" stroke="black" stroke-width="5" stroke-linecap="round"/>
<path d="M939.014 235.757C941.624 226.653 943.153 209.289 928.392 212.664C909.941 216.882 872.333 235.128 875.088 245.242" stroke="black" stroke-width="5" stroke-linecap="round"/>
<path d="M875.086 259.474C861.586 271.974 858.586 279.974 856.586 294.974" stroke="black" stroke-width="5" stroke-linecap="round"/>
<path d="M320.244 512.192C332.054 532.531 375.147 562.329 453.908 521.712C455.418 520.933 457.225 522.226 456.909 523.895C448.764 566.944 448.232 637.62 548.744 664.192C592.244 675.692 632.244 653.192 600.244 626.192C556.698 589.45 479.244 711.192 524.244 785.692" stroke="black" stroke-width="5" stroke-linecap="round"/>
<path d="M124.737 198.618C122.995 146.145 135.191 36.201 220.124 39.6992C244.95 41.1985 282.495 71.4829 284.586 150.642" stroke="black" stroke-width="5" stroke-linecap="round"/>
<path d="M83.6979 208.618C81.9587 149.306 99.6809 11.9139 192.837 3.19211C288.931 -5.80481 312.122 92.9929 314.586 151.638" stroke="black" stroke-width="5" stroke-linecap="round"/>
<path d="M145.586 182.118L263.586 151.118" stroke="black" stroke-width="5" stroke-linecap="round"/>
<path d="M69.7441 204.618C56.0775 207.118 25.6441 217.618 13.2441 239.618" stroke="black" stroke-width="5" stroke-linecap="round"/>
<path d="M11.2449 238.118C46.4449 217.318 57.7449 256.784 61.7449 274.118V512.118C61.7449 564.118 76.7449 561.618 91.6375 574.772C49.6375 560.272 27.7446 540.118 20.1373 530.272C-0.535906 503.516 1.63746 307.272 0.637462 285.772C-0.162538 268.572 8.57821 243.951 11.2449 238.118Z" fill="black"/>
<path d="M318.247 175.355L99.5882 239.119C78.2538 245.341 63.5859 264.897 63.5859 287.12V529.085C63.5859 564.773 99.8986 588.97 132.835 575.231L351.494 484.02C370.116 476.252 382.245 458.051 382.245 437.874V223.356C382.245 190.023 350.246 166.024 318.247 175.355Z" stroke="black" stroke-width="5" stroke-linecap="round"/>
<path d="M234.116 329.243C257.851 290.451 232.985 271.324 217.586 266.609C269.464 258.124 260.394 306.177 249.374 331.264L281.586 415.618L255.839 403.517C253.092 402.226 251.08 399.757 250.37 396.806L234.116 329.243Z" fill="black"/>
<path d="M196.586 439.618L219.337 337.707C189.845 331.116 189.369 269.316 219.337 265.204C267.368 258.613 261.891 309.314 249.251 331.116L279.586 415.281L196.586 439.618Z" stroke="black" stroke-width="5"/>
<path d="M14.2445 681.692C-11.3555 671.692 8.24447 659.192 21.2445 654.192L244.745 584.692C262.411 579.692 304.245 573.292 330.245 587.692C362.745 605.692 326.745 614.692 320.245 619.692C313.745 624.692 176.745 681.692 129.745 697.192C82.7446 712.692 46.2445 694.192 14.2445 681.692Z" fill="black"/>
<path d="M1289.66 354.506C1288.08 385.711 1278.05 413.305 1263.35 432.702C1248.64 452.124 1229.64 462.919 1209.94 461.924C1190.24 460.929 1172.42 448.276 1159.74 427.471C1147.08 406.693 1139.87 378.228 1141.44 347.023C1143.02 315.818 1153.06 288.224 1167.75 268.827C1182.46 249.405 1201.46 238.61 1221.16 239.605C1240.87 240.6 1258.68 253.253 1271.36 274.058C1284.03 294.836 1291.23 323.301 1289.66 354.506Z" stroke="black" stroke-width="10"/>
<path d="M1257.43 352.637C1256.52 370.698 1250.71 386.576 1242.31 397.656C1233.9 408.761 1223.28 414.638 1212.53 414.095C1201.77 413.552 1191.79 406.635 1184.54 394.739C1177.31 382.871 1173.13 366.488 1174.04 348.427C1174.95 330.365 1180.76 314.487 1189.15 303.407C1197.57 292.302 1208.19 286.426 1218.94 286.968C1229.7 287.511 1239.67 294.428 1246.93 306.324C1254.16 318.193 1258.34 334.575 1257.43 352.637Z" stroke="black" stroke-width="10"/>
<path d="M1098.09 322.118L1143.09 324.618" stroke="black" stroke-width="10" stroke-linecap="round"/>
<path d="M891.086 369.118L953.586 373.618" stroke="black" stroke-width="10" stroke-linecap="round"/>
<path d="M1029.59 378.618L1142.59 383.118" stroke="black" stroke-width="10" stroke-linecap="round"/>
</svg>
